<mxfile host="app.diagrams.net" modified="2022-11-02T17:02:27.552Z" agent="5.0 (Windows NT 10.0; Win64; x64) AppleWebKit/537.36 (KHTML, like Gecko) Chrome/107.0.0.0 Safari/537.36" etag="hhJob0148hRidULGOviu" version="20.5.1" type="github">
  <diagram id="jXvqA9akfcDvnYyeEzWh" name="Page-1">
    <mxGraphModel dx="1038" dy="623" grid="1" gridSize="10" guides="1" tooltips="1" connect="1" arrows="1" fold="1" page="1" pageScale="1" pageWidth="827" pageHeight="1169" math="0" shadow="0">
      <root>
        <mxCell id="0" />
        <mxCell id="1" parent="0" />
        <mxCell id="CNlMrn4Kn1Sz8RnUy3b1-1" value="Administrator" style="shape=umlActor;verticalLabelPosition=bottom;verticalAlign=top;html=1;outlineConnect=0;" vertex="1" parent="1">
          <mxGeometry x="40" y="120" width="50" height="100" as="geometry" />
        </mxCell>
        <mxCell id="CNlMrn4Kn1Sz8RnUy3b1-2" value="Receptionist" style="shape=umlActor;verticalLabelPosition=bottom;verticalAlign=top;html=1;outlineConnect=0;" vertex="1" parent="1">
          <mxGeometry x="40" y="410" width="50" height="90" as="geometry" />
        </mxCell>
        <mxCell id="CNlMrn4Kn1Sz8RnUy3b1-3" value="Issue Bike" style="ellipse;whiteSpace=wrap;html=1;" vertex="1" parent="1">
          <mxGeometry x="210" y="420" width="120" height="80" as="geometry" />
        </mxCell>
        <mxCell id="CNlMrn4Kn1Sz8RnUy3b1-4" value="Handle Enquiries" style="ellipse;whiteSpace=wrap;html=1;" vertex="1" parent="1">
          <mxGeometry x="210" y="310" width="120" height="80" as="geometry" />
        </mxCell>
        <mxCell id="CNlMrn4Kn1Sz8RnUy3b1-5" value="Maintain Customer List" style="ellipse;whiteSpace=wrap;html=1;" vertex="1" parent="1">
          <mxGeometry x="210" y="170" width="120" height="80" as="geometry" />
        </mxCell>
        <mxCell id="CNlMrn4Kn1Sz8RnUy3b1-6" value="Maintain Bike List" style="ellipse;whiteSpace=wrap;html=1;" vertex="1" parent="1">
          <mxGeometry x="210" y="60" width="120" height="80" as="geometry" />
        </mxCell>
        <mxCell id="CNlMrn4Kn1Sz8RnUy3b1-7" value="Handle Returns" style="ellipse;whiteSpace=wrap;html=1;" vertex="1" parent="1">
          <mxGeometry x="210" y="530" width="120" height="80" as="geometry" />
        </mxCell>
        <mxCell id="CNlMrn4Kn1Sz8RnUy3b1-9" value="" style="endArrow=none;html=1;rounded=0;entryX=0;entryY=0.5;entryDx=0;entryDy=0;exitX=0.5;exitY=0.5;exitDx=0;exitDy=0;exitPerimeter=0;" edge="1" parent="1" source="CNlMrn4Kn1Sz8RnUy3b1-1" target="CNlMrn4Kn1Sz8RnUy3b1-6">
          <mxGeometry width="50" height="50" relative="1" as="geometry">
            <mxPoint x="110" y="170" as="sourcePoint" />
            <mxPoint x="160" y="120" as="targetPoint" />
          </mxGeometry>
        </mxCell>
        <mxCell id="CNlMrn4Kn1Sz8RnUy3b1-10" value="" style="endArrow=none;html=1;rounded=0;entryX=0;entryY=0.5;entryDx=0;entryDy=0;exitX=0.5;exitY=0.5;exitDx=0;exitDy=0;exitPerimeter=0;" edge="1" parent="1" source="CNlMrn4Kn1Sz8RnUy3b1-1" target="CNlMrn4Kn1Sz8RnUy3b1-5">
          <mxGeometry width="50" height="50" relative="1" as="geometry">
            <mxPoint x="75" y="180" as="sourcePoint" />
            <mxPoint x="320" y="110" as="targetPoint" />
          </mxGeometry>
        </mxCell>
        <mxCell id="CNlMrn4Kn1Sz8RnUy3b1-11" value="" style="endArrow=none;html=1;rounded=0;entryX=0;entryY=0.5;entryDx=0;entryDy=0;exitX=0.5;exitY=0.5;exitDx=0;exitDy=0;exitPerimeter=0;" edge="1" parent="1" source="CNlMrn4Kn1Sz8RnUy3b1-2" target="CNlMrn4Kn1Sz8RnUy3b1-4">
          <mxGeometry width="50" height="50" relative="1" as="geometry">
            <mxPoint x="75" y="450" as="sourcePoint" />
            <mxPoint x="320" y="490" as="targetPoint" />
          </mxGeometry>
        </mxCell>
        <mxCell id="CNlMrn4Kn1Sz8RnUy3b1-12" value="" style="endArrow=none;html=1;rounded=0;entryX=0;entryY=0.5;entryDx=0;entryDy=0;exitX=0.5;exitY=0.5;exitDx=0;exitDy=0;exitPerimeter=0;" edge="1" parent="1" source="CNlMrn4Kn1Sz8RnUy3b1-2" target="CNlMrn4Kn1Sz8RnUy3b1-3">
          <mxGeometry width="50" height="50" relative="1" as="geometry">
            <mxPoint x="80" y="460" as="sourcePoint" />
            <mxPoint x="325" y="500" as="targetPoint" />
          </mxGeometry>
        </mxCell>
        <mxCell id="CNlMrn4Kn1Sz8RnUy3b1-13" value="" style="endArrow=none;html=1;rounded=0;entryX=0;entryY=0.5;entryDx=0;entryDy=0;exitX=0.5;exitY=0.5;exitDx=0;exitDy=0;exitPerimeter=0;" edge="1" parent="1" source="CNlMrn4Kn1Sz8RnUy3b1-2" target="CNlMrn4Kn1Sz8RnUy3b1-7">
          <mxGeometry width="50" height="50" relative="1" as="geometry">
            <mxPoint x="100" y="490" as="sourcePoint" />
            <mxPoint x="345" y="530" as="targetPoint" />
          </mxGeometry>
        </mxCell>
        <mxCell id="CNlMrn4Kn1Sz8RnUy3b1-14" value="" style="endArrow=none;html=1;rounded=0;entryX=0;entryY=1;entryDx=0;entryDy=0;exitX=0.5;exitY=0.5;exitDx=0;exitDy=0;exitPerimeter=0;" edge="1" parent="1" source="CNlMrn4Kn1Sz8RnUy3b1-2" target="CNlMrn4Kn1Sz8RnUy3b1-5">
          <mxGeometry width="50" height="50" relative="1" as="geometry">
            <mxPoint x="105" y="210" as="sourcePoint" />
            <mxPoint x="350" y="250" as="targetPoint" />
          </mxGeometry>
        </mxCell>
        <mxCell id="CNlMrn4Kn1Sz8RnUy3b1-15" value="Find Bike" style="ellipse;whiteSpace=wrap;html=1;" vertex="1" parent="1">
          <mxGeometry x="480" y="220" width="120" height="80" as="geometry" />
        </mxCell>
        <mxCell id="CNlMrn4Kn1Sz8RnUy3b1-16" value="Print Receipt" style="ellipse;whiteSpace=wrap;html=1;" vertex="1" parent="1">
          <mxGeometry x="530" y="470" width="120" height="80" as="geometry" />
        </mxCell>
        <mxCell id="CNlMrn4Kn1Sz8RnUy3b1-33" value="" style="endArrow=none;dashed=1;html=1;rounded=0;entryX=0;entryY=0;entryDx=0;entryDy=0;startArrow=none;" edge="1" parent="1" source="CNlMrn4Kn1Sz8RnUy3b1-29" target="CNlMrn4Kn1Sz8RnUy3b1-15">
          <mxGeometry width="50" height="50" relative="1" as="geometry">
            <mxPoint x="390" y="320" as="sourcePoint" />
            <mxPoint x="440" y="270" as="targetPoint" />
          </mxGeometry>
        </mxCell>
        <mxCell id="CNlMrn4Kn1Sz8RnUy3b1-29" value="&amp;lt;&amp;lt;includes&amp;gt;&amp;gt;" style="text;html=1;align=center;verticalAlign=middle;resizable=0;points=[];autosize=1;strokeColor=none;fillColor=none;rotation=0;" vertex="1" parent="1">
          <mxGeometry x="370" y="155" width="100" height="30" as="geometry" />
        </mxCell>
        <mxCell id="CNlMrn4Kn1Sz8RnUy3b1-34" value="" style="endArrow=none;dashed=1;html=1;rounded=0;exitX=1;exitY=0.5;exitDx=0;exitDy=0;" edge="1" parent="1" source="CNlMrn4Kn1Sz8RnUy3b1-6" target="CNlMrn4Kn1Sz8RnUy3b1-29">
          <mxGeometry width="50" height="50" relative="1" as="geometry">
            <mxPoint x="330" y="100" as="sourcePoint" />
            <mxPoint x="497.57359312880726" y="231.7157287525381" as="targetPoint" />
          </mxGeometry>
        </mxCell>
        <mxCell id="CNlMrn4Kn1Sz8RnUy3b1-35" value="" style="endArrow=none;dashed=1;html=1;rounded=0;entryX=0;entryY=0.5;entryDx=0;entryDy=0;startArrow=none;" edge="1" parent="1" source="CNlMrn4Kn1Sz8RnUy3b1-28" target="CNlMrn4Kn1Sz8RnUy3b1-15">
          <mxGeometry width="50" height="50" relative="1" as="geometry">
            <mxPoint x="330" y="350" as="sourcePoint" />
            <mxPoint x="400.7142857142858" y="405" as="targetPoint" />
          </mxGeometry>
        </mxCell>
        <mxCell id="CNlMrn4Kn1Sz8RnUy3b1-28" value="&amp;lt;&amp;lt;includes&amp;gt;&amp;gt;" style="text;html=1;align=center;verticalAlign=middle;resizable=0;points=[];autosize=1;strokeColor=none;fillColor=none;" vertex="1" parent="1">
          <mxGeometry x="350" y="290" width="100" height="30" as="geometry" />
        </mxCell>
        <mxCell id="CNlMrn4Kn1Sz8RnUy3b1-36" value="" style="endArrow=none;dashed=1;html=1;rounded=0;exitX=1;exitY=0.5;exitDx=0;exitDy=0;" edge="1" parent="1" source="CNlMrn4Kn1Sz8RnUy3b1-4" target="CNlMrn4Kn1Sz8RnUy3b1-28">
          <mxGeometry width="50" height="50" relative="1" as="geometry">
            <mxPoint x="330" y="350" as="sourcePoint" />
            <mxPoint x="480" y="260" as="targetPoint" />
          </mxGeometry>
        </mxCell>
        <mxCell id="CNlMrn4Kn1Sz8RnUy3b1-37" value="" style="endArrow=none;dashed=1;html=1;rounded=0;entryX=0.5;entryY=1;entryDx=0;entryDy=0;startArrow=none;" edge="1" parent="1" source="CNlMrn4Kn1Sz8RnUy3b1-24" target="CNlMrn4Kn1Sz8RnUy3b1-15">
          <mxGeometry width="50" height="50" relative="1" as="geometry">
            <mxPoint x="350" y="390" as="sourcePoint" />
            <mxPoint x="420.7142857142858" y="445" as="targetPoint" />
          </mxGeometry>
        </mxCell>
        <mxCell id="CNlMrn4Kn1Sz8RnUy3b1-38" value="" style="endArrow=none;dashed=1;html=1;rounded=0;entryX=0;entryY=0.5;entryDx=0;entryDy=0;startArrow=none;exitX=0.848;exitY=1;exitDx=0;exitDy=0;exitPerimeter=0;" edge="1" parent="1" source="CNlMrn4Kn1Sz8RnUy3b1-19" target="CNlMrn4Kn1Sz8RnUy3b1-16">
          <mxGeometry width="50" height="50" relative="1" as="geometry">
            <mxPoint x="330" y="460" as="sourcePoint" />
            <mxPoint x="400.7142857142858" y="515" as="targetPoint" />
          </mxGeometry>
        </mxCell>
        <mxCell id="CNlMrn4Kn1Sz8RnUy3b1-24" value="&amp;lt;&amp;lt;includes&amp;gt;&amp;gt;" style="text;html=1;align=center;verticalAlign=middle;resizable=0;points=[];autosize=1;strokeColor=none;fillColor=none;" vertex="1" parent="1">
          <mxGeometry x="400" y="350" width="100" height="30" as="geometry" />
        </mxCell>
        <mxCell id="CNlMrn4Kn1Sz8RnUy3b1-40" value="" style="endArrow=none;dashed=1;html=1;rounded=0;exitX=1;exitY=0.5;exitDx=0;exitDy=0;" edge="1" parent="1" source="CNlMrn4Kn1Sz8RnUy3b1-3" target="CNlMrn4Kn1Sz8RnUy3b1-24">
          <mxGeometry width="50" height="50" relative="1" as="geometry">
            <mxPoint x="330" y="460" as="sourcePoint" />
            <mxPoint x="540" y="300" as="targetPoint" />
          </mxGeometry>
        </mxCell>
        <mxCell id="CNlMrn4Kn1Sz8RnUy3b1-41" value="" style="endArrow=none;dashed=1;html=1;rounded=0;exitX=1;exitY=0.5;exitDx=0;exitDy=0;" edge="1" parent="1" target="CNlMrn4Kn1Sz8RnUy3b1-19">
          <mxGeometry width="50" height="50" relative="1" as="geometry">
            <mxPoint x="330" y="460" as="sourcePoint" />
            <mxPoint x="410" y="480" as="targetPoint" />
          </mxGeometry>
        </mxCell>
        <mxCell id="CNlMrn4Kn1Sz8RnUy3b1-42" value="" style="endArrow=none;dashed=1;html=1;rounded=0;entryX=0;entryY=1;entryDx=0;entryDy=0;startArrow=none;exitX=1;exitY=0.333;exitDx=0;exitDy=0;exitPerimeter=0;" edge="1" parent="1" source="CNlMrn4Kn1Sz8RnUy3b1-21" target="CNlMrn4Kn1Sz8RnUy3b1-16">
          <mxGeometry width="50" height="50" relative="1" as="geometry">
            <mxPoint x="490" y="550" as="sourcePoint" />
            <mxPoint x="448.7142857142858" y="565" as="targetPoint" />
          </mxGeometry>
        </mxCell>
        <mxCell id="CNlMrn4Kn1Sz8RnUy3b1-21" value="&amp;lt;&amp;lt;extends&amp;gt;&amp;gt;" style="text;html=1;align=center;verticalAlign=middle;resizable=0;points=[];autosize=1;strokeColor=none;fillColor=none;" vertex="1" parent="1">
          <mxGeometry x="390" y="540" width="90" height="30" as="geometry" />
        </mxCell>
        <mxCell id="CNlMrn4Kn1Sz8RnUy3b1-43" value="" style="endArrow=none;dashed=1;html=1;rounded=0;exitX=1;exitY=0.5;exitDx=0;exitDy=0;entryX=0.022;entryY=0.72;entryDx=0;entryDy=0;entryPerimeter=0;" edge="1" parent="1" source="CNlMrn4Kn1Sz8RnUy3b1-7" target="CNlMrn4Kn1Sz8RnUy3b1-21">
          <mxGeometry width="50" height="50" relative="1" as="geometry">
            <mxPoint x="330" y="570" as="sourcePoint" />
            <mxPoint x="547.5735931288073" y="538.2842712474617" as="targetPoint" />
          </mxGeometry>
        </mxCell>
        <mxCell id="CNlMrn4Kn1Sz8RnUy3b1-45" value="" style="swimlane;startSize=0;" vertex="1" parent="1">
          <mxGeometry x="170" y="40" width="490" height="600" as="geometry">
            <mxRectangle x="170" y="40" width="50" height="40" as="alternateBounds" />
          </mxGeometry>
        </mxCell>
        <mxCell id="CNlMrn4Kn1Sz8RnUy3b1-19" value="&amp;lt;&amp;lt;includes&amp;gt;&amp;gt;" style="text;html=1;align=center;verticalAlign=middle;resizable=0;points=[];autosize=1;strokeColor=none;fillColor=none;" vertex="1" parent="CNlMrn4Kn1Sz8RnUy3b1-45">
          <mxGeometry x="220" y="430" width="100" height="30" as="geometry" />
        </mxCell>
      </root>
    </mxGraphModel>
  </diagram>
</mxfile>
